<svg xmlns="http://www.w3.org/2000/svg" xmlns:svg="http://www.w3.org/2000/svg" id="svg7384" width="16" height="16" version="1.1"><metadata id="metadata90"/><title id="title9167">Gnome Symbolic Icon Theme</title><path id="rect4063" fill="#bebebe" d="M 7 1 C 5.3553 1 4 2.3553 4 4 L 4 4.0136719 L 6 4.0136719 L 6 4 C 6 3.4287 6.4287 3 7 3 L 9 3 C 9.5713 3 10 3.4287 10 4 L 10 5.78125 L 6 5.78125 L 6 5.7773438 L 4 5.7773438 L 4 5.78125 L 3 5.78125 L 3 5.7792969 C 2.446 5.7792969 2 6.3597452 2 7.0800781 L 2 7.7714844 L 2 14.880859 L 14 14.880859 L 14 7.7714844 L 14 7.0820312 C 14 6.3616952 13.554 5.78125 13 5.78125 L 12 5.78125 L 12 4 C 12 2.3553 10.6447 1 9 1 L 7 1 z M 8 7.8730469 A 1.5 1.5 0 0 1 9.5 9.3730469 A 1.5 1.5 0 0 1 8.5 10.785156 L 8.5 12.5 L 7.5 12.5 L 7.5 10.787109 A 1.5 1.5 0 0 1 6.5 9.3730469 A 1.5 1.5 0 0 1 8 7.8730469 z" color="#bebebe"/><path id="path3761-2-3-5-4-8-9-8-9-9-0" fill="#bebebe" d="m 18.434103,6.2601619 1.375,0 1.125,1.0938 1.09,-1.09 1.41,0 0,1.4688 -1.0938,1.0625 1.09,1.06 0,1.4100001 -1.44,0 -1.06,-1.06 -1.06,1.06 -1.44,0 0,-1.4062001 1.0625,-1.0625 -1.06,-1.06 0,-1.47 z" color="#bebebe"/></svg>