<svg xmlns="http://www.w3.org/2000/svg" xmlns:svg="http://www.w3.org/2000/svg" id="svg7384" width="16" height="16" version="1.1"><metadata id="metadata90"/><title id="title9167">Gnome Symbolic Icon Theme</title><path id="rect4150" fill="#bebebe" fill-opacity="1" stroke="none" stroke-dasharray="none" stroke-linejoin="round" stroke-miterlimit="4" stroke-opacity="1" stroke-width=".2" d="M 2 3 C 1.4457191 3 1 3.4396402 1 3.9863281 L 1 12.013672 C 1 12.56036 1.4457191 13 2 13 L 3.9257812 13 L 3.6015625 15.263672 L 6.2558594 13 L 14 13 C 14.554281 13 15 12.56036 15 12.013672 L 15 3.9863281 C 15 3.4396402 14.554281 3 14 3 L 2 3 z M 7.5 4 L 8.5 4 C 8.777 4 9 4.223 9 4.5 L 9 8.5 C 9 8.777 8.777 9 8.5 9 L 7.5 9 C 7.223 9 7 8.777 7 8.5 L 7 4.5 C 7 4.223 7.223 4 7.5 4 z M 7.5 10 L 8.5 10 C 8.777 10 9 10.223 9 10.5 L 9 11.5 C 9 11.777 8.777 12 8.5 12 L 7.5 12 C 7.223 12 7 11.777 7 11.5 L 7 10.5 C 7 10.223 7.223 10 7.5 10 z"/></svg>